# xmcd
#
# Track frame offsets:
#	150
#	14236
#	27352
#	38748
#	55757
#	84960
#	108871
#	124473
#	144244
#	157003
#	182314
#
# Disc length: 2907 seconds
#
# Revision: 1
# Processed by: cddbd v1.5.2PL0 Copyright (c) Steve Scherf et al.
# Submitted via: audiograbber 1.83.01
#
DISCID=880b590b
DTITLE=Innes Sibun - Tail Dragger
DYEAR=2007
DGENRE=Blues
TTITLE0=It Takes time
TTITLE1=I Don't Get Fooled By Tears
TTITLE2=I'll Never Love Again
TTITLE3=I Want You Back
TTITLE4=As The Tears Go Passing By
TTITLE5=Don't Stop Believing
TTITLE6=I Miss You Daisy's Song
TTITLE7=Someone Like You
TTITLE8=Southbound Train
TTITLE9=Sweet Disjunction
TTITLE10=3000 Miles Away
EXTD=
EXTT0=
EXTT1=
EXTT2=
EXTT3=
EXTT4=
EXTT5=
EXTT6=
EXTT7=
EXTT8=
EXTT9=
EXTT10=
PLAYORDER=
